<?xml version="1.0" standalone="no"?>
<!DOCTYPE svg PUBLIC "-//W3C//DTD SVG 20010904//EN"
 "http://www.w3.org/TR/2001/REC-SVG-20010904/DTD/svg10.dtd">
<svg version="1.0" xmlns="http://www.w3.org/2000/svg"
 width="451.000000pt" height="411.000000pt" viewBox="0 0 451.000000 411.000000"
 preserveAspectRatio="xMidYMid meet">

<g transform="translate(0.000000,411.000000) scale(0.100000,-0.100000)"
fill="#000000" stroke="none">
<path d="M990 2055 l0 -1055 73 0 c112 0 343 -19 442 -35 247 -42 445 -115
621 -230 97 -63 95 -64 150 17 l28 40 -29 25 c-48 39 -207 131 -287 164 -225
97 -431 141 -760 165 l-88 6 0 910 0 910 108 -6 c384 -25 688 -120 926 -291
42 -30 80 -55 86 -55 5 0 45 26 89 58 237 169 538 263 924 288 l107 7 0 -842
0 -841 -522 2 -523 3 -3 68 -3 67 141 0 140 0 0 75 0 74 -137 3 -138 3 0 50 0
50 105 5 c127 7 195 34 268 107 151 152 145 387 -15 533 -84 77 -136 92 -334
98 l-166 4 -6 -113 c-4 -63 -7 -196 -7 -296 l0 -183 -100 0 -100 0 0 -75 0
-75 100 0 100 0 0 -55 0 -55 -100 0 -100 0 0 -75 0 -75 100 0 99 0 3 -143 3
-142 673 -3 672 -2 0 985 0 985 -148 0 c-408 0 -769 -92 -1050 -266 l-72 -46
-63 40 c-282 178 -648 272 -1059 272 l-148 0 0 -1055z m1555 198 c79 -41 119
-108 120 -199 0 -83 -38 -147 -114 -186 -46 -24 -65 -28 -137 -28 l-84 0 0
221 0 221 88 -4 c62 -3 98 -10 127 -25z"/>
</g>
</svg>
